<svg xmlns="http://www.w3.org/2000/svg" viewBox="0 0 152.201 152.232">
  <defs>
    <style>
      .cls-1 {
        fill: #fff;
      }

      .cls-2 {
        fill: #003557;
      }
    </style>
  </defs>
  <g id="Group_19" data-name="Group 19" transform="translate(0.1 0.1)">
    <path id="Path_7" data-name="Path 7" class="cls-1" d="M19.006,85.5H9.791A9.408,9.408,0,0,0,.1,95.287v18.241c0,4.94,2.66,8.361,7.506,9.6,1.615.38,2.09,1.045,2.09,2.755q-.143,8.408,0,16.816a9.42,9.42,0,0,0,12.921,8.551c4.75-1.9,6.08-5.89,6.175-10.546.1-4.94.1-9.976,0-14.916a2.363,2.363,0,0,1,2.185-2.755c3.8-.855,6.555-3.325,6.841-7.221a184.71,184.71,0,0,0,.19-21.757c-.38-5.7-4.37-8.551-10.261-8.551Zm47.6,38.1v18.811a9.4,9.4,0,0,0,13.3,8.646,8.739,8.739,0,0,0,5.51-8.171c.19-5.605.19-11.211.1-16.816,0-1.71.475-2.565,2.185-2.945a8.9,8.9,0,0,0,7.221-9.026c.1-6.365.1-12.636,0-19a9.531,9.531,0,0,0-9.691-9.6H66.985c-5.89,0-9.881,3.99-9.976,9.786,0,6.175-.1,12.351,0,18.526a11.616,11.616,0,0,0,.855,4.085C59.48,121.6,62.71,123.029,66.605,123.6Zm85.411-18.906c0-3.23.1-6.46,0-9.691-.1-5.035-4.085-9.311-8.931-9.406-6.746-.1-13.491-.1-20.142,0-4.085.1-8.171,3.23-8.456,7.316a222.517,222.517,0,0,0-.19,22.517c.19,4.275,3.04,7.031,7.316,7.886,1.71.38,2.09,1.33,2.09,2.85-.1,5.51,0,11.116,0,16.626a8.669,8.669,0,0,0,3.61,7.316,9.033,9.033,0,0,0,9.6,1.14,8.939,8.939,0,0,0,5.605-8.361c.19-5.605.19-11.211.1-16.816,0-1.615.475-2.375,2.09-2.755,4.75-1.14,7.316-4.56,7.411-9.406C152.112,110.678,152.017,107.638,152.017,104.693ZM28.412,66.6a9.194,9.194,0,0,0-9.311-9.5,9.618,9.618,0,0,0-9.5,9.311A9.51,9.51,0,0,0,18.911,76,9.386,9.386,0,0,0,28.412,66.6Zm57.1-.1a9.454,9.454,0,1,0-18.906.19,9.454,9.454,0,0,0,18.906-.19Zm38.193-.19a9.407,9.407,0,1,0,9.311-9.216A9.185,9.185,0,0,0,123.7,66.31ZM66.605,9.4a9.453,9.453,0,1,0,18.906,0,9.591,9.591,0,0,0-9.5-9.5A9.767,9.767,0,0,0,66.605,9.4ZM47.414,28.592a9.328,9.328,0,0,0-9.406,9.5A9.533,9.533,0,0,0,47.414,47.4a9.738,9.738,0,0,0,9.6-9.5A9.451,9.451,0,0,0,47.414,28.592Zm57.194,0A9.592,9.592,0,0,0,95.012,38a9.738,9.738,0,0,0,9.6,9.5,9.552,9.552,0,0,0,9.406-9.406A9.386,9.386,0,0,0,104.608,28.592Z" transform="translate(-0.01)"/>
    <path id="Path_8" data-name="Path 8" class="cls-2" d="M19,90h8.551c5.89,0,9.881,2.85,10.261,8.551a184.709,184.709,0,0,1-.19,21.757c-.19,3.9-3.04,6.365-6.841,7.221a2.363,2.363,0,0,0-2.185,2.755c.1,4.94.1,9.976,0,14.916-.1,4.655-1.425,8.551-6.175,10.546A9.42,9.42,0,0,1,9.5,147.194q-.143-8.408,0-16.816c0-1.615-.475-2.375-2.09-2.755-4.845-1.14-7.506-4.56-7.506-9.6V99.786A9.517,9.517,0,0,1,9.591,90Z" transform="translate(0 -4.499)"/>
    <path id="Path_9" data-name="Path 9" class="cls-2" d="M69.6,128.1c-3.9-.57-7.126-2-8.551-5.7a12.573,12.573,0,0,1-.855-4.085q-.143-9.263,0-18.526c0-5.8,4.085-9.786,9.976-9.786H88.413A9.416,9.416,0,0,1,98.1,99.6c.1,6.365.1,12.636,0,19a8.992,8.992,0,0,1-7.221,9.026c-1.805.38-2.185,1.235-2.185,2.945.1,5.605.1,11.211-.1,16.816a8.883,8.883,0,0,1-5.51,8.171,9.341,9.341,0,0,1-13.3-8.646V130.758A11.274,11.274,0,0,1,69.6,128.1Z" transform="translate(-3.007 -4.499)"/>
    <path id="Path_10" data-name="Path 10" class="cls-2" d="M158,109.183v9.026c-.1,4.845-2.66,8.266-7.411,9.406-1.615.38-2.09,1.14-2.09,2.755.1,5.605.19,11.211-.1,16.816a8.939,8.939,0,0,1-5.605,8.361,9.033,9.033,0,0,1-9.6-1.14,8.79,8.79,0,0,1-3.61-7.316c.1-5.51,0-11.116,0-16.626,0-1.52-.285-2.47-2.09-2.85-4.275-.855-7.126-3.61-7.316-7.886a222.519,222.519,0,0,1,.19-22.517c.285-4.085,4.37-7.221,8.456-7.316,6.746-.1,13.491-.1,20.142,0,4.845.1,8.836,4.37,8.931,9.406C158.1,102.627,158,105.952,158,109.183Z" transform="translate(-5.996 -4.49)"/>
    <path id="Path_11" data-name="Path 11" class="cls-2" d="M28.906,69.6A9.271,9.271,0,0,1,19.406,79a9.5,9.5,0,0,1,.1-19A9.352,9.352,0,0,1,28.906,69.6Z" transform="translate(-0.504 -3.001)"/>
    <path id="Path_12" data-name="Path 12" class="cls-2" d="M89.006,69.506a9.454,9.454,0,1,1-9.6-9.406A9.468,9.468,0,0,1,89.006,69.506Z" transform="translate(-3.505 -3.006)"/>
    <path id="Path_13" data-name="Path 13" class="cls-2" d="M130.2,69.311A9.346,9.346,0,0,1,139.606,60a9.454,9.454,0,0,1,.19,18.906A9.23,9.23,0,0,1,130.2,69.311Z" transform="translate(-6.506 -3.001)"/>
    <path id="Path_14" data-name="Path 14" class="cls-2" d="M70.1,9.406a9.406,9.406,0,1,1,18.811.1,9.408,9.408,0,0,1-9.5,9.5A9.512,9.512,0,0,1,70.1,9.406Z" transform="translate(-3.505 -0.005)"/>
    <path id="Path_15" data-name="Path 15" class="cls-2" d="M49.406,30.1A9.53,9.53,0,0,1,59,39.506a9.738,9.738,0,0,1-9.6,9.5,9.453,9.453,0,0,1,0-18.906Z" transform="translate(-2.002 -1.508)"/>
    <path id="Path_16" data-name="Path 16" class="cls-2" d="M109.6,30.1A9.328,9.328,0,0,1,119,39.6a9.617,9.617,0,0,1-9.406,9.406,9.738,9.738,0,0,1-9.6-9.5A9.53,9.53,0,0,1,109.6,30.1Z" transform="translate(-4.998 -1.508)"/>
  </g>
</svg>
