<svg xmlns="http://www.w3.org/2000/svg" viewBox="0 0 170.26 153.864">
  <defs>
    <style>
      .cls-1 {
        fill: #003557;
      }
    </style>
  </defs>
  <g id="Group_22" data-name="Group 22" transform="translate(0 -0.059)">
    <path id="Path_27" data-name="Path 27" class="cls-1" d="M97.515,95.241c-1.239,4.054-2.365,8.107-3.716,12.049a2.721,2.721,0,0,1-2.139,1.464,56.842,56.842,0,0,1-6.193.113c-27.25,0-54.613,0-81.863.113-2.928,0-3.6-.788-3.6-3.6Q.169,73.283,0,41.191c0-2.7.788-3.491,3.491-3.491,40.875.113,81.863.113,122.738,0,2.815,0,3.716.676,3.716,3.6-.225,9.459-.113,18.917,0,28.376,0,2.252-.788,3.153-2.928,3.6a35.039,35.039,0,0,0-8.783,2.928,18,18,0,0,1-9.909,2.139c-3.491-.113-6.981.113-10.36-.113-2.027-.113-2.59.676-2.477,2.59.113,3.6-.113,7.319.113,10.923a14.118,14.118,0,0,0,1.351,3.378A1.015,1.015,0,0,0,97.515,95.241Zm-73.192-.788c2.59,0,5.18-.113,7.882,0,1.576,0,2.477-.45,2.365-2.139q-.169-5.912,0-11.823c0-1.8-.788-2.252-2.365-2.252-5.18.113-10.472.113-15.652,0-1.464,0-2.252.338-2.139,2.027.113,4.054.113,7.995,0,12.049,0,1.689.676,2.139,2.139,2.027C19.03,94.452,21.62,94.452,24.322,94.452ZM74.882,78.575H54.951V94.452c6.306,0,12.5,0,18.692-.113.45,0,1.239-.9,1.239-1.351ZM54.838,63.937c6.306,0,12.386,0,18.467-.113a1.943,1.943,0,0,0,1.464-1.464q.169-6.587,0-13.175a1.832,1.832,0,0,0-1.351-1.351c-6.193-.113-12.274-.113-18.58-.113C54.838,53.352,54.838,58.419,54.838,63.937Zm60.693-16.1c-6.306,0-12.386,0-18.467.113-.563,0-1.464,1.239-1.464,2.027-.113,4.054,0,8.107-.113,12.049,0,1.464.45,2.027,1.914,1.914,3.491-.113,6.981,0,10.36,0h7.77C115.531,58.419,115.531,53.352,115.531,47.834ZM24.21,63.937c2.59,0,5.292-.113,7.882,0,1.576,0,2.477-.338,2.477-2.139q-.169-5.912,0-11.823c0-1.576-.563-2.139-2.139-2.139-5.292,0-10.7.113-15.99,0-1.576,0-2.139.676-2.027,2.139q.169,5.912,0,11.823c0,1.576.45,2.252,2.139,2.139C19.03,63.824,21.62,63.937,24.21,63.937Z" transform="translate(0 4.744)"/>
    <path id="Path_28" data-name="Path 28" class="cls-1" d="M124.682,75.7c18.129-.45,34.457,15.089,34.232,34.682A34.459,34.459,0,0,1,90,109.709C90.225,89.891,106.891,75.027,124.682,75.7Zm-6.193,26.011v9.571a4.906,4.906,0,0,0,2.59,4.617c4.392,2.365,8.558,4.955,12.949,7.319,2.477,1.351,4.729.9,5.855-1.013,1.239-2.027.563-4.5-1.914-5.968-3.04-1.8-6.081-3.716-9.234-5.292-1.8-.9-2.252-2.139-2.252-4.054.113-5.067.113-10.134-.113-15.2a3.983,3.983,0,0,0-4.166-4.054c-2.139.113-3.6,1.8-3.716,4.5Z" transform="translate(11.343 9.531)"/>
    <path id="Path_29" data-name="Path 29" class="cls-1" d="M.1,18.122H18.117V6.3A15,15,0,0,1,18.68,2.47C19.355.443,21.044-.12,22.959.105a3.492,3.492,0,0,1,3.266,3.6c.113,4.617,0,9.234,0,14.075h76.908V7.2a18.781,18.781,0,0,1,.225-3.6c.45-2.365,1.914-3.716,4.392-3.491,2.477.113,3.716,1.689,3.716,4.054.113,4.5,0,9.008,0,13.963h14.413c3.941,0,3.941,0,3.941,3.941,0,3.266-.113,6.531,0,9.8,0,1.8-.676,2.59-2.477,2.477H4.154C.1,34.337.1,34.337.1,30.17.1,26.342.1,22.4.1,18.122Z" transform="translate(0.013 0)"/>
  </g>
</svg>
