<svg xmlns="http://www.w3.org/2000/svg" viewBox="0 0 150.004 150.082">
  <defs>
    <style>
      .cls-1 {
        fill: #eaf3fa;
      }
    </style>
  </defs>
  <g id="Group_23" data-name="Group 23" transform="translate(0.004 0.036)">
    <path id="Path_30" data-name="Path 30" class="cls-1" d="M0,74.4C-.3,35.9,30.7,1.4,72.4,0,115.7-1.3,150,32.3,150,75.6c.1,39.9-31.6,73-72.5,74.4C33,151.5-.4,115.8,0,74.4Zm77.9-27V21.9c0-3.5-.9-5.3-2.9-5.2-1.9.1-2.7,1.7-2.7,5.1,0,16.6,0,33.2-.1,49.7a6.3,6.3,0,0,1-1.7,4.1c-5.2,5.5-10.6,10.8-16,16.2-3,3-6,6-8.9,9.1-1.6,1.7-1.3,3.9.7,4.4a4.879,4.879,0,0,0,3.6-1.3c8.6-8.4,17-17,25.5-25.4a7.79,7.79,0,0,0,2.5-5.9C77.8,64.2,77.9,55.8,77.9,47.4Z"/>
  </g>
</svg>
