<svg xmlns="http://www.w3.org/2000/svg" viewBox="8587 1763 135.5 122.9">
  <defs>
    <style>
      .cls-1 {
        fill: #fff;
      }

      .cls-2 {
        fill: #eaf3fa;
      }
    </style>
  </defs>
  <g id="Group_21" data-name="Group 21" transform="translate(8587 1763)">
    <path id="Path_21" data-name="Path 21" class="cls-1" d="M104.7,0H92.5V18.1h12.2ZM42.8,18.2V0h-12V18.2Z"/>
    <path id="Path_22" data-name="Path 22" class="cls-2" d="M0,12.2c7.7,0,15.3,0,22.9.1.5,0,1.4,1,1.4,1.6.2,2.7.1,5.5.1,8.2-.1,1.7.5,2.4,2.3,2.4,6.7-.1,13.5-.1,20.2,0,1.7,0,2.4-.6,2.3-2.3-.1-3.2,0-6.5,0-9.9h37V24.4H96.5c4,0,8-.1,12,0,1.8,0,2.5-.6,2.5-2.4-.1-3.1,0-6.3,0-9.7h24.5V122.9H.1Q-.05,68,0,12.2Zm67.8,98.6h52.7c2,0,2.7-.5,2.7-2.6q-.15-34.35,0-68.7c0-2.1-.6-2.7-2.7-2.7-35.2.1-70.5.1-105.7,0-2.1,0-2.7.7-2.7,2.7q.15,34.35,0,68.7c0,2.1.7,2.6,2.7,2.6Z"/>
    <path id="Path_23" data-name="Path 23" class="cls-2" d="M104.7,0V18.1H92.5V0Z"/>
    <path id="Path_24" data-name="Path 24" class="cls-2" d="M42.8,18.2h-12V0h12Z"/>
  </g>
</svg>
