<svg xmlns="http://www.w3.org/2000/svg" viewBox="0 0 113.729 156.014">
  <defs>
    <style>
      .cls-1 {
        fill: #003557;
      }
    </style>
  </defs>
  <g id="Group_25" data-name="Group 25" transform="translate(0.053 0.106)">
    <path id="Path_32" data-name="Path 32" class="cls-1" d="M46.959,155.908c-2.146-.743-2.807-2.229-2.807-4.375.083-11.556,0-23.03,0-34.586v-1.073H12.785c-2.641,0-4.045-1.321-4.045-3.962V101.429c0-2.641,1.4-3.962,4.045-3.962H44.07v-9.41H13.2a7.1,7.1,0,0,1-1.321-.083,3.247,3.247,0,0,1-3.054-3.219c-.083-3.962-.083-8.007,0-11.969a3.419,3.419,0,0,1,3.715-3.3H35.98a11.052,11.052,0,0,0-.5-.991L.816,6.09A5.993,5.993,0,0,1-.009,4.026,3.428,3.428,0,0,1,3.623-.018c6.6,0,13.125.083,19.728-.083a5.334,5.334,0,0,1,5.613,3.384c7.677,15.436,15.6,30.789,23.278,46.225,1.981,4.127,3.632,8.254,5.53,12.382a9.683,9.683,0,0,1,.413.908,1.8,1.8,0,0,1,.248-.413c9.08-19.976,18.16-40.034,27.24-60.01A3.608,3.608,0,0,1,89.3.064h20.471c3.219,0,4.87,2.724,3.3,5.613Q103.79,22.888,94.5,40.016C89.386,49.508,84.269,59,79.151,68.411c-.165.248-.248.5-.5.908h.991c7.346,0,14.693.083,22.039,0a3.872,3.872,0,0,1,4.292,4.292c-.083,3.467,0,6.851,0,10.318,0,2.641-1.4,4.045-4.045,4.045H70.4v9.41h.908c10.153,0,20.306.083,30.459,0a3.926,3.926,0,0,1,4.21,4.292c-.083,3.384,0,6.851,0,10.236,0,2.641-1.4,3.962-3.962,3.962h-31.7v35.659c0,2.146-.743,3.714-2.807,4.375Z" transform="translate(0)"/>
  </g>
</svg>
