<svg xmlns="http://www.w3.org/2000/svg" viewBox="0 0 163.062 156.9">
  <defs>
    <style>
      .cls-1 {
        fill: #003557;
      }
    </style>
  </defs>
  <g id="Group_24" data-name="Group 24" transform="translate(0.005)">
    <path id="Path_31" data-name="Path 31" class="cls-1" d="M81.58,0h77.68c2.155.1,3.694,1.026,3.8,3.386,0,2.258-1.642,3.284-3.592,3.181-2.873-.1-2.873,1.334-2.873,3.489v101.59c0,5.233-1.026,6.26-6.362,6.26-20.728,0-41.56,0-62.288-.1-2.668,0-3.386.718-3.284,3.284q.154,13.084,0,26.167c0,2.463.718,3.078,3.078,2.976,4.1-.205,8.209-.1,12.314,0,2.668,0,4.1,1.129,4.207,3.181.1,1.95-1.539,3.386-4.207,3.489H63.109c-2.771,0-4.412-1.334-4.412-3.284,0-2.052,1.539-3.284,4.412-3.284,4.31,0,8.517-.1,12.827,0,1.744,0,2.463-.513,2.463-2.36q-.154-13.853,0-27.706c0-2.258-1.129-2.36-2.873-2.36H12.93a25.006,25.006,0,0,1-2.771-.1c-2.36-.308-3.694-1.642-3.694-4.1V10.056c0-2.258-.308-3.489-2.976-3.386C1.539,6.567-.1,5.541,0,3.284.1.924,1.745,0,3.9,0H81.58ZM80.041,76.757c-5.439-3.592-10.569-6.978-15.6-10.364a4.158,4.158,0,0,0-5.028-.1c-2.463,1.642-5.028,3.284-7.491,4.926-3.8,2.463-7.594,4.926-11.185,7.7A4.391,4.391,0,0,0,39.4,82.606c.1.821,1.642,1.95,2.668,2.155s2.258-.616,3.284-1.231c4.823-3.078,9.543-6.26,14.264-9.543a3.166,3.166,0,0,1,4.31-.1c4.515,3.181,9.03,6.054,13.648,9.133,4.31,2.873,5.849,2.463,7.9-2.36C90.2,69.779,94.92,58.8,99.538,47.819c.821-1.847,1.642-3.592,2.668-5.746a22.575,22.575,0,0,1,2.155,1.95l13.032,13.032c1.847,1.847,4.1,2.155,5.439.821,1.437-1.334,1.231-3.386-.718-5.336-5.952-5.952-11.9-12.006-17.958-17.958-2.668-2.668-5.131-2.155-6.567,1.231C93.894,44.535,90.2,53.258,86.4,61.878,84.453,66.7,82.3,71.523,80.041,76.757Z" transform="translate(0)"/>
  </g>
</svg>
