<svg xmlns="http://www.w3.org/2000/svg" viewBox="0 0 159.146 159.1">
  <defs>
    <style>
      .cls-1 {
        fill: #fff;
      }

      .cls-2 {
        fill: #003557;
      }
    </style>
  </defs>
  <g id="Group_20" data-name="Group 20" transform="translate(0.045 0)">
    <path id="Path_17" data-name="Path 17" class="cls-1" d="M47.8,159.1h43c3.6,0,4.6-1,4.6-4.6V131.3c-.1-13.3-4.6-24.9-14-34.4-3.6-3.6-4.6-3.6-8,0a34.091,34.091,0,0,1-22.2,11.2c-12,1.1-22-3.1-30.1-12.1-2.2-2.4-3.6-2.5-5.9-.3C5.4,105,.2,116.3,0,129.8-.1,137.9,0,146,0,154c0,4.3.8,5.1,5.1,5.1ZM47.7,50.9A22.251,22.251,0,1,0,70.1,73,22.15,22.15,0,0,0,47.7,50.9Z"/>
    <path id="Path_18" data-name="Path 18" class="cls-2" d="M47.8,159.1H5.1c-4.2,0-5-.8-5.1-5.1,0-8.1-.1-16.2,0-24.2A46.142,46.142,0,0,1,15.2,95.7c2.3-2.2,3.7-2.1,5.9.3,8,9,18.1,13.2,30.1,12.1A34.091,34.091,0,0,0,73.4,96.9c3.4-3.6,4.4-3.7,8,0,9.4,9.6,13.9,21.1,14,34.4v23.2c0,3.6-1,4.6-4.6,4.6Z"/>
    <path id="Path_19" data-name="Path 19" class="cls-2" d="M76.5,41a41.3,41.3,0,0,1,82.6.1c.2,22.6-18.5,41.4-41.2,41.5C94.8,82.7,75.9,63.5,76.5,41Zm44.4-2.7V35c0-4.1.1-8.2,0-12.2,0-2-1-3.4-3.2-3.4-2.1,0-3,1.3-3,3.2-.1,6.2-.1,12.3,0,18.5,0,1.7.8,3.1,2.6,3.2,4.6.1,9.2.2,13.7-.1a3.809,3.809,0,0,0,2.4-2.8c0-1-1.4-2.2-2.5-2.8-.8-.5-2.1-.2-3.2-.2C125.5,38.3,123.4,38.3,120.9,38.3Z"/>
    <path id="Path_20" data-name="Path 20" class="cls-2" d="M47.7,50.9A22.25,22.25,0,1,1,25.6,73.1,22,22,0,0,1,47.7,50.9Z"/>
  </g>
</svg>
