<svg xmlns="http://www.w3.org/2000/svg" viewBox="0 0 102.784 141">
  <defs>
    <style>
      .cls-1 {
        fill: #eaf3fa;
      }
    </style>
  </defs>
  <g id="Group_26" data-name="Group 26" transform="translate(0.053 0.106)">
    <path id="Path_32" data-name="Path 32" class="cls-1" d="M42.434,140.894c-1.94-.671-2.536-2.014-2.536-3.954.075-10.444,0-20.814,0-31.258v-.97H11.55c-2.387,0-3.655-1.194-3.655-3.581V91.658c0-2.387,1.268-3.581,3.655-3.581H39.823v-8.5h-27.9a6.417,6.417,0,0,1-1.194-.075,2.934,2.934,0,0,1-2.76-2.909c-.075-3.581-.075-7.236,0-10.817a3.09,3.09,0,0,1,3.357-2.984H32.513a9.992,9.992,0,0,0-.448-.9L.733,5.494A5.416,5.416,0,0,1-.013,3.629,3.1,3.1,0,0,1,3.269-.027C9.237-.027,15.131.048,21.1-.1a4.821,4.821,0,0,1,5.073,3.059c6.938,13.95,14.1,27.826,21.037,41.777,1.79,3.73,3.282,7.46,5,11.19a8.751,8.751,0,0,1,.373.821,1.63,1.63,0,0,1,.224-.373C61.01,38.318,69.216,20.19,77.422,2.137A3.261,3.261,0,0,1,80.7.048h18.5c2.909,0,4.4,2.462,2.984,5.073Q93.8,20.675,85.4,36.155c-4.625,8.579-9.251,17.158-13.876,25.663-.149.224-.224.448-.448.821h.9c6.639,0,13.279.075,19.918,0a3.5,3.5,0,0,1,3.879,3.879c-.075,3.133,0,6.192,0,9.325,0,2.387-1.268,3.655-3.655,3.655h-28.5V88h.821c9.176,0,18.352.075,27.528,0a3.548,3.548,0,0,1,3.8,3.879c-.075,3.059,0,6.192,0,9.251,0,2.387-1.268,3.581-3.581,3.581H63.546V136.94c0,1.94-.671,3.357-2.536,3.954Z" transform="translate(0 0)"/>
  </g>
</svg>
